<?xml version="1.0" encoding="UTF-8"?><svg id="Layer_1" xmlns="http://www.w3.org/2000/svg" xmlns:xlink="http://www.w3.org/1999/xlink" viewBox="0 0 124.64 65.62"><defs><style>.cls-1{fill:none;}.cls-2{clip-path:url(#clippath);}.cls-3,.cls-4{fill:#fff;}.cls-5{fill:#83a00b;}.cls-4{fill-rule:evenodd;}.cls-6{isolation:isolate;}</style><clipPath id="clippath"><rect class="cls-1" x="111.14" y="50.44" width="9.23" height="10.87" rx=".34" ry=".34"/></clipPath></defs><path id="Rectangle_2308" class="cls-5" d="m9.65,46.61h105.34c5.33,0,9.65,3.98,9.65,8.88h0c0,4.91-4.32,8.88-9.65,8.88H9.65c-5.33,0-9.65-3.98-9.65-8.88h0c0-4.91,4.32-8.88,9.65-8.88Z"/><g><path id="Path_400" class="cls-3" d="m38.82,33.5s2.13-1.84,3.73-1.25c1.49.66,2.42,2.16,2.37,3.78-.35,2.61-2.55,6.04-2.55,6.04,0,0,8.41-5.27,8.7-5.51.39-.21.86-.21,1.25,0,.61.19,1.01.78.96,1.41-.11.96,0,6.21.11,7.11.18.77-1.07,1.12-1.71.24-1.01-1.36-.53-6.21-.53-6.21,0,0-3.78,3.43-6.28,4.5-2.48,1.07-4.44.11-4.68-1.01s2.9-5.97,2.72-7.51c-.24-1.54-.42-.77-2.55-1.01-.55-.05-1.08-.25-1.52-.59h0Z"/><path id="Path_401" class="cls-3" d="m29.87,32.19c.11-.64,4.74-.96,5.97,2.48,1.54,4.26-2.31,6.04-2.77,6.74-1.45,1.65-2.69,3.47-3.67,5.44-1.12,2.61-1.36,3.43-1.71,3.31-.35,0-.64-3.14.24-5.75.88-2.55,2.02-5.62,2.61-7.64.26-1.06.35-2.16.29-3.25-.24-.49-.57-.94-.96-1.32h0Z"/><path id="Path_402" class="cls-3" d="m2.64,40.36c.24-.64,11.9-8.87,26.57-14.27,7.7-2.77,11.48-2.96,17.92-3.43,7.05-.24,10.17,1.18,10.36,1.54.48.96-1.12,1.01-1.12,1.01l.35-.64c-2.53.03-5.06.24-7.57.64-4.21.59-9.29,1.65-18.16,5.27-2.77,1.18-6.21,3.49-8.47,4.68-6.92,3.62-9.24,4.74-13.07,5.91-4.44,1.23-6.98-.07-6.81-.72h0Z"/><path id="Path_403" class="cls-3" d="m56.5,36.05s1.12-.05,1.6,1.84c.25-.14.49-.3.72-.48,1.12-.77,7.51-5.62,9.71-6.5,1.49-.68,3.25-.08,4.02,1.36.18.42-.29.72-.29.72.05.36-.08.71-.35.96-.19.14-.3.36-.29.59-.05.42-.29,1.01-.77.83-.42-.18-.59-1.07-1.17-.83-.53.29-.95-1.6-8.87,4.26-1.36,1.01-2.18.88-2.61.53-.24,1.71-1.12,4.37-1.07,4.61,0,.35,0,1.71-.42,1.71-.35,0-1.25-.35-1.36-2.31.08-1.97.42-3.92,1.01-5.8.12-.48.17-.97.15-1.47h0Z"/><path id="Path_404" class="cls-4" d="m78.28,25.16c1.36-.11,1.78,2.07,1.78,2.48.05.88-.35,2.07-.29,2.55,0,.24-.83,2.37-1.25,3.49.03.03.07.05.11.05l7.27-3.2c.67.01,1.22.51,1.3,1.18.05.88-1.54.83-2.02,1.01-2.7,1.18-5.33,2.5-7.88,3.97-.24.11-.29.53-.48.83h.11c.18,0,6.98,1.65,7.16,1.65.35,0,2.24.42,2.31,1.3.05.83-1.07,1.41-1.36,1.49-.88.05-.64-1.12-1.17-1.07-.83.05-6.34-1.95-7.88-1.07-1.41.83-1.07,2.72-1.71,4.08.42.42.53.29.53.59.03.32-.17.62-.48.72-1.17.05-1.71-2.31-1.78-2.61,0-.18.05-1.25.11-1.84-.11-.05-.29,0-.42,0-.24,0-1.54.42-1.71.42-.77.05-1.6-1.41-1.65-2.02-.05-1.18,2.9-2.42,3.25-2.48,3.97-1.07,3.84-6.04,5.62-9.18.18-.51.24-1.06.18-1.6,0-.35-.29-.24-.53-.48.27-.15.56-.24.86-.27h0Z"/><path id="Path_405" class="cls-3" d="m94.02,27.16c.11,0,.29.05.42.05.53,0,1.95,1.36,2.02,1.71.05.42-.83,1.36-1.17,1.36-.1-.01-.2-.03-.29-.05-.59.05-1.01.05-1.12.05-.41-.13-.81-.31-1.17-.53-.04-.04.73-2.59,1.32-2.59h0Z"/><path id="Path_406" class="cls-3" d="m92.48,32.25c.83-.05,1.54,1.07,1.6,1.65,0,.18-2.08,6.04-2.13,6.21-.42,1.18.59,2.24.64,2.66s-.48,1.89-1.3,1.89c-.18,0-.24-.18-.35-.18s-.72-.42-.95-.42c-.11,0-.24.05-.35.05-.95-.2-1.76-.83-2.18-1.71-.17-.97,4.2-9.02,5.03-10.15h0Z"/><path id="Path_407" class="cls-4" d="m121.66,29.77c-.73-.29-1.54-.25-2.24.11-.48.29-1.25.64-2.13,1.18-.92.58-1.79,1.23-2.61,1.95-1.95,1.78-5.8,5.75-4.79,7.57.63,1.24,1.78,2.13,3.14,2.42,1.5.1,3-.3,4.26-1.12.42-.24.83-.53,1.25-.83,2.85-2.18,4.68-4.15,4.68-4.61-.05-.53.11-1.12-.72-.59-.59.35-3.25,2.02-5.22,3.14-.59.35-1.12.64-1.54.88-1.78.88-2.66,1.18-2.77,1.01-.03-.79.22-1.57.72-2.18.53-.35.53.05,1.6-.59.48-.29,1.17-.77,2.02-1.36,1.12-.72,2.37-1.54,3.31-2.02,1.65-.77,3.91-2.31,4.02-3.14v-.11c-.26-.7-2.08-1.47-2.98-1.71Zm-1.23,2.02c-.96,1.02-2.01,1.95-3.14,2.77l-.18.18c-1.25,1.01-3.01,2.37-3.01,2.37.8-1.6,1.88-3.05,3.2-4.26.06-.04.1-.11.11-.18,2.12-1.89,3.38-1.36,3.02-.88h0Z"/><path id="Path_408" class="cls-4" d="m39.52.11c2.8.19,5.55.79,8.17,1.78,2.85,1.3,4.68,3.09,7.99,4.37,4.5,1.78,8.52,2.9,10.01,3.38,2.72.95,5.21,3.49,6.68,7.99-1.2-1.3-2.55-2.45-4.02-3.43-1.55-1.09-3.22-1.98-4.98-2.66-1.41-.52-2.8-1.12-4.15-1.78,0,0,1.78,1.18,4.26,2.55,2.76,1.5,5.28,3.41,7.46,5.67,1.14,1.21,1.99,2.67,2.48,4.26.11.48.11.95.24,1.49.64,6.63,1.36,7.64,1.36,7.64-3.14-3.84-6.28-2.48-6.87-1.89,0,0-.05-1.95-.05-6.04s-3.25-7.22-4.44-8.1c-3.48-1.84-6.85-3.85-10.12-6.04-2.66-1.84-4.61-4.08-6.87-5.75-2.17-1.54-4.58-2.7-7.14-3.43Z"/><path id="Path_409" class="cls-3" d="m95.75,0s-3.01,5.8-6.81,7.99c-.77.48-1.41.83-1.95,1.12.59-.18,1.3-.42,2.13-.72,4.15-1.49,11.18-.59,11.18-.59,0,0-6.21.35-9.64,5.51-4.9,7.57-15.87,9.48-17.04,3.31-.05-.45.03-.9.24-1.3,3.38,2.19,6.92-1.25,9.4-4.44-4.08-.18-8.94.35-9.48,4.37-.43-.14-.82-.38-1.12-.72-4.02-4.85,4.5-11.95,13.5-10.89,3.6.45,7.19-.92,9.59-3.64Z"/><path id="Path_410" class="cls-3" d="m66.75,29.77s-2.37-.24-2.37-5.91c0-3.91,1.25-3.78,1.25-3.78.74,1.21,1.13,2.6,1.12,4.02v5.68h0Z"/><path id="Path_411" class="cls-3" d="m99.4,31.31c.11.79.09,1.59-.05,2.37-.29,1.25-2.66,4.5-1.07,5.56,1.36.88,8.52-5.21,9.77-5.09.35.05,1.17,1.54.35,5.03-.77,3.49-6.98,20.29-7.22,22.5-.18,2.18,0,3.84-.83,3.91-2.61.35-4.55-3.38-4.02-6.45.53-3.14,8.28-14.97,9.53-17.63,2.02-4.26,1.49-5.21,1.49-5.21,0,0-5.03,4.61-7.88,4.85-2.85.18-5.14-2.9-3.38-6.21.64-1.4,3.3-3.64,3.3-3.64h0Z"/><path id="Path_412" class="cls-3" d="m50.53,28.46l.35.64c-.42,1.01-.83,1.25-1.12,1.36l-2.72,1.6c-.24.18-.77.64-.83.59-.35-.24-.29-.77-.35-.96.37-.74.85-1.42,1.41-2.02.47-.29.97-.53,1.49-.72l1.76-.5h0Z"/><path id="Path_413" class="cls-3" d="m55.49,30.01l.35.64c-.42,1.01-.83,1.25-1.12,1.3l-2.72,1.66c-.24.18-.72.64-.77.59-.42-.24-.35-.77-.42-1.01.35-.75.86-1.41,1.49-1.95.44-.3.91-.54,1.41-.72l1.78-.51h0Z"/></g><g><g><ellipse id="Ellipse_81" class="cls-5" cx="115.74" cy="55.5" rx="7.95" ry="8.06"/><path id="Path_461" class="cls-3" d="m115.86,64.38c-4.91.07-8.94-3.85-9.01-8.76s3.85-8.94,8.76-9.01c4.91-.07,8.94,3.85,9.01,8.76,0,.04,0,.08,0,.13.03,4.87-3.89,8.85-8.76,8.89Zm0-16.28c-4.09-.06-7.45,3.2-7.51,7.29-.06,4.09,3.2,7.45,7.29,7.51s7.45-3.2,7.51-7.29c0-.04,0-.07,0-.11.03-4.06-3.24-7.37-7.29-7.4Z"/></g><g id="Group_879"><g class="cls-2"><g id="Group_1022"><g id="Group_869"><path id="Path_446" class="cls-3" d="m118.74,55.42c.41-4.13,1.61-4.95,1.63-4.98-2.46.23-4.81,1.11-6.81,2.56-1.5,1.21-3.43,4.04-1.8,6.79.25.41.59.77.99,1.06-.5-2.08.64-5.03,3.53-6.88-2.16,1.71-3.25,4.45-2.85,7.18,2.54.73,4.84-.98,5.32-5.72"/></g></g></g></g></g><g id="Sustainable" class="cls-6"><g class="cls-6"><path class="cls-3" d="m4.87,59.6l1.35-1.69c.66.57,1.29.99,1.9,1.26.61.26,1.26.4,1.94.4s1.26-.13,1.69-.39c.42-.26.63-.6.63-1.04,0-.39-.14-.69-.43-.91-.29-.22-.76-.38-1.43-.49l-2.25-.39c-.97-.16-1.71-.5-2.21-1.02-.5-.52-.75-1.19-.75-2.01,0-1.06.4-1.9,1.21-2.51.8-.62,1.89-.92,3.26-.92.82,0,1.65.14,2.49.42.84.28,1.57.67,2.2,1.17l-1.26,1.75c-.61-.46-1.2-.81-1.78-1.03-.58-.22-1.18-.33-1.8-.33s-1.13.12-1.51.35c-.38.23-.57.54-.57.93,0,.35.12.62.37.81.25.19.66.33,1.25.42l2.14.36c1.12.18,1.97.54,2.54,1.08.57.53.85,1.24.85,2.11,0,1.1-.44,1.98-1.3,2.64-.87.66-2.03.99-3.48.99-.91,0-1.8-.17-2.68-.52s-1.66-.83-2.34-1.44Z"/><path class="cls-3" d="m18.09,52.96v4.91c0,.54.16.97.48,1.3.32.32.74.49,1.27.49.38,0,.72-.07,1.01-.22s.54-.35.74-.62v-5.85h2.22v8.44h-2.22v-.68c-.32.27-.69.48-1.09.62-.4.15-.83.22-1.3.22-.97,0-1.77-.32-2.4-.95-.63-.63-.94-1.44-.94-2.42v-5.23h2.22Z"/><path class="cls-3" d="m24.83,60.4l1.1-1.47c.5.32.97.56,1.41.72.44.16.89.23,1.33.23.5,0,.89-.08,1.19-.24.3-.16.45-.38.45-.65,0-.22-.08-.39-.25-.52-.17-.13-.43-.22-.8-.28l-1.62-.24c-.83-.13-1.47-.4-1.9-.81s-.66-.96-.66-1.64c0-.81.32-1.46.96-1.95s1.49-.73,2.56-.73c.62,0,1.22.09,1.8.27.58.18,1.14.44,1.67.79l-1.07,1.43c-.46-.27-.91-.47-1.33-.61-.42-.13-.85-.2-1.28-.2-.4,0-.72.08-.96.23s-.36.35-.36.6c0,.23.09.4.27.53.18.12.47.21.88.27l1.62.24c.82.12,1.46.39,1.9.81.45.42.67.96.67,1.61,0,.4-.09.77-.28,1.11-.19.34-.45.63-.77.88-.32.25-.71.44-1.17.58-.45.14-.94.21-1.47.21-.77,0-1.49-.1-2.15-.3s-1.24-.49-1.72-.87Z"/><path class="cls-3" d="m34.49,59.02v-4.2h-1.73v-1.86h1.73v-2.16l2.22-.5v2.66h2.4v1.86h-2.4v3.74c0,.4.09.68.26.84.17.16.48.24.91.24.21,0,.4-.01.58-.04.18-.03.38-.08.6-.15v1.81c-.24.08-.52.14-.86.19-.34.05-.62.07-.86.07-.94,0-1.65-.21-2.13-.64-.48-.43-.72-1.05-.72-1.87Z"/><path class="cls-3" d="m42.88,61.55c-.91,0-1.65-.24-2.22-.72s-.86-1.1-.86-1.87.31-1.43.92-1.88c.62-.45,1.46-.68,2.54-.68.35,0,.69.03,1.04.08s.69.13,1.02.24v-.6c0-.49-.15-.85-.45-1.1-.3-.25-.75-.37-1.33-.37-.36,0-.74.06-1.16.17-.42.11-.89.29-1.42.53l-.81-1.64c.66-.3,1.3-.53,1.92-.68.62-.15,1.23-.23,1.84-.23,1.13,0,2.02.27,2.65.82.63.54.95,1.31.95,2.31v5.48h-2.19v-.58c-.36.25-.73.43-1.13.55-.39.12-.83.18-1.32.18Zm-.96-2.64c0,.32.14.58.42.77.28.19.65.28,1.12.28.37,0,.71-.05,1.01-.14.31-.09.59-.22.85-.4v-1.26c-.27-.11-.55-.19-.85-.24s-.61-.07-.93-.07c-.51,0-.9.09-1.19.28-.29.19-.43.45-.43.77Z"/><path class="cls-3" d="m50.3,51.96c-.35,0-.64-.12-.89-.37-.25-.25-.37-.54-.37-.89s.12-.64.37-.89c.25-.25.55-.37.89-.37s.64.12.89.37c.25.25.37.55.37.89s-.12.64-.37.89c-.25.25-.55.37-.89.37Zm1.12,1v8.44h-2.22v-8.44h2.22Z"/><path class="cls-3" d="m53.15,61.4v-8.44h2.22v.66c.32-.27.68-.48,1.08-.62s.82-.21,1.29-.21c.97,0,1.77.31,2.4.94.63.63.94,1.43.94,2.41v5.25h-2.22v-4.93c0-.53-.16-.96-.48-1.28-.32-.32-.74-.49-1.27-.49-.37,0-.7.07-1,.22-.3.15-.54.35-.74.62v5.85h-2.22Z"/><path class="cls-3" d="m65.44,61.55c-.91,0-1.65-.24-2.22-.72s-.86-1.1-.86-1.87.31-1.43.92-1.88c.62-.45,1.46-.68,2.54-.68.35,0,.69.03,1.04.08s.69.13,1.02.24v-.6c0-.49-.15-.85-.45-1.1-.3-.25-.75-.37-1.33-.37-.36,0-.74.06-1.16.17-.42.11-.89.29-1.42.53l-.81-1.64c.66-.3,1.3-.53,1.92-.68.62-.15,1.23-.23,1.84-.23,1.13,0,2.02.27,2.65.82.63.54.95,1.31.95,2.31v5.48h-2.19v-.58c-.36.25-.73.43-1.13.55-.39.12-.83.18-1.32.18Zm-.96-2.64c0,.32.14.58.42.77.28.19.65.28,1.12.28.37,0,.71-.05,1.01-.14.31-.09.59-.22.85-.4v-1.26c-.27-.11-.55-.19-.85-.24s-.61-.07-.93-.07c-.51,0-.9.09-1.19.28-.29.19-.43.45-.43.77Z"/><path class="cls-3" d="m80.64,57.19c0,.6-.11,1.17-.34,1.7-.23.53-.53.99-.92,1.38-.39.39-.85.7-1.39.92-.54.22-1.1.33-1.71.33-.42,0-.83-.06-1.23-.18-.4-.12-.77-.29-1.1-.5v.57h-2.19v-11.34l2.22-.49v4.05c.34-.25.71-.44,1.11-.58.41-.14.82-.2,1.26-.2.59,0,1.15.11,1.68.34.52.23.98.53,1.37.92s.69.85.92,1.38c.22.53.33,1.1.33,1.7Zm-4.65-2.45c-.4,0-.77.07-1.12.2-.35.14-.64.33-.89.59v3.32c.24.24.53.43.88.57s.73.21,1.13.21c.69,0,1.27-.23,1.75-.7s.71-1.05.71-1.74-.24-1.27-.72-1.74c-.48-.47-1.06-.71-1.74-.71Z"/><path class="cls-3" d="m84.22,49.57v11.83h-2.22v-11.34l2.22-.49Z"/><path class="cls-3" d="m93.52,60.35c-.52.42-1.05.73-1.6.92-.55.19-1.15.29-1.82.29s-1.23-.11-1.79-.34c-.56-.23-1.04-.53-1.44-.92s-.72-.85-.96-1.39c-.23-.53-.35-1.11-.35-1.72s.11-1.18.33-1.71c.22-.53.53-1,.92-1.39.39-.39.85-.7,1.39-.93.54-.23,1.1-.34,1.71-.34s1.15.12,1.66.35c.51.23.96.55,1.33.95.37.4.66.88.88,1.43.21.56.32,1.16.32,1.81v.58h-6.29c.15.53.44.96.87,1.28.43.32.94.49,1.52.49.37,0,.71-.06,1.04-.18.32-.12.6-.29.83-.5l1.46,1.33Zm-3.66-5.7c-.51,0-.95.15-1.31.46-.37.31-.62.72-.76,1.24h4.13c-.14-.5-.4-.9-.77-1.22-.37-.32-.8-.48-1.29-.48Z"/></g></g></svg>